<mxfile host="app.diagrams.net" modified="2023-11-24T14:48:26.584Z" agent="Mozilla/5.0 (Windows NT 10.0; Win64; x64) AppleWebKit/537.36 (KHTML, like Gecko) Chrome/119.0.0.0 Safari/537.36 Edg/119.0.0.0" etag="PKJJjaY_yD28hZ3Zztcx" version="22.1.3" type="device">
  <diagram name="Page-1" id="FQsmVYVl-Thw2dUcSEz-">
    <mxGraphModel dx="903" dy="503" grid="1" gridSize="10" guides="1" tooltips="1" connect="1" arrows="1" fold="1" page="1" pageScale="1" pageWidth="850" pageHeight="1100" math="0" shadow="0">
      <root>
        <mxCell id="0" />
        <mxCell id="1" parent="0" />
        <mxCell id="z8570nAPyHbNO16Ycq4u-5" style="edgeStyle=orthogonalEdgeStyle;rounded=0;orthogonalLoop=1;jettySize=auto;html=1;exitX=0.5;exitY=1;exitDx=0;exitDy=0;entryX=0.5;entryY=0;entryDx=0;entryDy=0;" parent="1" source="z8570nAPyHbNO16Ycq4u-3" target="z8570nAPyHbNO16Ycq4u-4" edge="1">
          <mxGeometry relative="1" as="geometry" />
        </mxCell>
        <mxCell id="z8570nAPyHbNO16Ycq4u-3" value="Start" style="rounded=1;whiteSpace=wrap;html=1;" parent="1" vertex="1">
          <mxGeometry x="255" y="130" width="110" height="40" as="geometry" />
        </mxCell>
        <mxCell id="z8570nAPyHbNO16Ycq4u-6" style="edgeStyle=orthogonalEdgeStyle;rounded=0;orthogonalLoop=1;jettySize=auto;html=1;" parent="1" source="z8570nAPyHbNO16Ycq4u-4" target="z8570nAPyHbNO16Ycq4u-7" edge="1">
          <mxGeometry relative="1" as="geometry">
            <mxPoint x="310" y="300" as="targetPoint" />
          </mxGeometry>
        </mxCell>
        <mxCell id="z8570nAPyHbNO16Ycq4u-4" value="Enter sender&#39;s, receiver&#39;s accounts and transferred_sum" style="shape=parallelogram;perimeter=parallelogramPerimeter;whiteSpace=wrap;html=1;fixedSize=1;" parent="1" vertex="1">
          <mxGeometry x="230" y="200" width="160" height="60" as="geometry" />
        </mxCell>
        <mxCell id="z8570nAPyHbNO16Ycq4u-9" style="edgeStyle=orthogonalEdgeStyle;rounded=0;orthogonalLoop=1;jettySize=auto;html=1;entryX=1;entryY=0.5;entryDx=0;entryDy=0;" parent="1" source="z8570nAPyHbNO16Ycq4u-7" target="z8570nAPyHbNO16Ycq4u-8" edge="1">
          <mxGeometry relative="1" as="geometry" />
        </mxCell>
        <mxCell id="z8570nAPyHbNO16Ycq4u-10" value="No" style="edgeLabel;html=1;align=center;verticalAlign=middle;resizable=0;points=[];" parent="z8570nAPyHbNO16Ycq4u-9" vertex="1" connectable="0">
          <mxGeometry x="-0.1939" y="1" relative="1" as="geometry">
            <mxPoint x="-4" y="-2" as="offset" />
          </mxGeometry>
        </mxCell>
        <mxCell id="z8570nAPyHbNO16Ycq4u-17" style="edgeStyle=orthogonalEdgeStyle;rounded=0;orthogonalLoop=1;jettySize=auto;html=1;entryX=0;entryY=0.5;entryDx=0;entryDy=0;" parent="1" source="z8570nAPyHbNO16Ycq4u-7" target="z8570nAPyHbNO16Ycq4u-16" edge="1">
          <mxGeometry relative="1" as="geometry" />
        </mxCell>
        <mxCell id="z8570nAPyHbNO16Ycq4u-18" value="Yes" style="edgeLabel;html=1;align=center;verticalAlign=middle;resizable=0;points=[];" parent="z8570nAPyHbNO16Ycq4u-17" vertex="1" connectable="0">
          <mxGeometry x="-0.1616" relative="1" as="geometry">
            <mxPoint as="offset" />
          </mxGeometry>
        </mxCell>
        <mxCell id="z8570nAPyHbNO16Ycq4u-7" value="sender exists" style="rhombus;whiteSpace=wrap;html=1;" parent="1" vertex="1">
          <mxGeometry x="270" y="280" width="80" height="80" as="geometry" />
        </mxCell>
        <mxCell id="gryU-XBA_1HrgzcaGIGP-2" style="edgeStyle=orthogonalEdgeStyle;rounded=0;orthogonalLoop=1;jettySize=auto;html=1;entryX=0.5;entryY=0;entryDx=0;entryDy=0;" parent="1" source="z8570nAPyHbNO16Ycq4u-8" target="z8570nAPyHbNO16Ycq4u-44" edge="1">
          <mxGeometry relative="1" as="geometry">
            <Array as="points">
              <mxPoint x="70" y="320" />
              <mxPoint x="70" y="610" />
              <mxPoint x="425" y="610" />
            </Array>
          </mxGeometry>
        </mxCell>
        <mxCell id="z8570nAPyHbNO16Ycq4u-8" value="Throw" style="rounded=0;whiteSpace=wrap;html=1;" parent="1" vertex="1">
          <mxGeometry x="100" y="295" width="110" height="50" as="geometry" />
        </mxCell>
        <mxCell id="z8570nAPyHbNO16Ycq4u-20" style="edgeStyle=orthogonalEdgeStyle;rounded=0;orthogonalLoop=1;jettySize=auto;html=1;entryX=0;entryY=0.5;entryDx=0;entryDy=0;" parent="1" source="z8570nAPyHbNO16Ycq4u-16" target="z8570nAPyHbNO16Ycq4u-19" edge="1">
          <mxGeometry relative="1" as="geometry" />
        </mxCell>
        <mxCell id="z8570nAPyHbNO16Ycq4u-21" value="No" style="edgeLabel;html=1;align=center;verticalAlign=middle;resizable=0;points=[];" parent="z8570nAPyHbNO16Ycq4u-20" vertex="1" connectable="0">
          <mxGeometry x="-0.0159" y="2" relative="1" as="geometry">
            <mxPoint y="1" as="offset" />
          </mxGeometry>
        </mxCell>
        <mxCell id="z8570nAPyHbNO16Ycq4u-23" style="edgeStyle=orthogonalEdgeStyle;rounded=0;orthogonalLoop=1;jettySize=auto;html=1;exitX=0.5;exitY=1;exitDx=0;exitDy=0;entryX=0.5;entryY=0;entryDx=0;entryDy=0;" parent="1" source="z8570nAPyHbNO16Ycq4u-16" target="z8570nAPyHbNO16Ycq4u-22" edge="1">
          <mxGeometry relative="1" as="geometry" />
        </mxCell>
        <mxCell id="z8570nAPyHbNO16Ycq4u-16" value="receiver &lt;br&gt;exists" style="rhombus;whiteSpace=wrap;html=1;" parent="1" vertex="1">
          <mxGeometry x="440" y="280" width="80" height="80" as="geometry" />
        </mxCell>
        <mxCell id="gryU-XBA_1HrgzcaGIGP-1" style="edgeStyle=orthogonalEdgeStyle;rounded=0;orthogonalLoop=1;jettySize=auto;html=1;entryX=0.5;entryY=0;entryDx=0;entryDy=0;" parent="1" source="z8570nAPyHbNO16Ycq4u-19" target="z8570nAPyHbNO16Ycq4u-44" edge="1">
          <mxGeometry relative="1" as="geometry">
            <Array as="points">
              <mxPoint x="730" y="320" />
              <mxPoint x="730" y="570" />
              <mxPoint x="425" y="570" />
            </Array>
          </mxGeometry>
        </mxCell>
        <mxCell id="z8570nAPyHbNO16Ycq4u-19" value="Throw" style="rounded=0;whiteSpace=wrap;html=1;" parent="1" vertex="1">
          <mxGeometry x="600" y="295" width="110" height="50" as="geometry" />
        </mxCell>
        <mxCell id="z8570nAPyHbNO16Ycq4u-27" style="edgeStyle=orthogonalEdgeStyle;rounded=0;orthogonalLoop=1;jettySize=auto;html=1;entryX=0;entryY=0.5;entryDx=0;entryDy=0;" parent="1" source="z8570nAPyHbNO16Ycq4u-22" target="z8570nAPyHbNO16Ycq4u-26" edge="1">
          <mxGeometry relative="1" as="geometry" />
        </mxCell>
        <mxCell id="z8570nAPyHbNO16Ycq4u-29" value="No" style="edgeLabel;html=1;align=center;verticalAlign=middle;resizable=0;points=[];" parent="z8570nAPyHbNO16Ycq4u-27" vertex="1" connectable="0">
          <mxGeometry x="-0.1103" y="-2" relative="1" as="geometry">
            <mxPoint y="-3" as="offset" />
          </mxGeometry>
        </mxCell>
        <mxCell id="z8570nAPyHbNO16Ycq4u-33" style="edgeStyle=orthogonalEdgeStyle;rounded=0;orthogonalLoop=1;jettySize=auto;html=1;entryX=1;entryY=0.5;entryDx=0;entryDy=0;" parent="1" source="z8570nAPyHbNO16Ycq4u-22" edge="1">
          <mxGeometry relative="1" as="geometry">
            <mxPoint x="370" y="450" as="targetPoint" />
          </mxGeometry>
        </mxCell>
        <mxCell id="z8570nAPyHbNO16Ycq4u-22" value="available_amount &amp;gt;= transferred_sum" style="rhombus;whiteSpace=wrap;html=1;" parent="1" vertex="1">
          <mxGeometry x="401" y="410" width="157.5" height="80" as="geometry" />
        </mxCell>
        <mxCell id="z8570nAPyHbNO16Ycq4u-31" style="edgeStyle=orthogonalEdgeStyle;rounded=0;orthogonalLoop=1;jettySize=auto;html=1;entryX=0.5;entryY=0;entryDx=0;entryDy=0;" parent="1" source="z8570nAPyHbNO16Ycq4u-26" target="z8570nAPyHbNO16Ycq4u-44" edge="1">
          <mxGeometry relative="1" as="geometry">
            <mxPoint x="655" y="510" as="targetPoint" />
            <Array as="points">
              <mxPoint x="655" y="560" />
              <mxPoint x="425" y="560" />
            </Array>
          </mxGeometry>
        </mxCell>
        <mxCell id="z8570nAPyHbNO16Ycq4u-26" value="Throw" style="rounded=0;whiteSpace=wrap;html=1;" parent="1" vertex="1">
          <mxGeometry x="600" y="425" width="110" height="50" as="geometry" />
        </mxCell>
        <mxCell id="z8570nAPyHbNO16Ycq4u-41" style="edgeStyle=orthogonalEdgeStyle;rounded=0;orthogonalLoop=1;jettySize=auto;html=1;entryX=1;entryY=0.5;entryDx=0;entryDy=0;" parent="1" target="z8570nAPyHbNO16Ycq4u-40" edge="1">
          <mxGeometry relative="1" as="geometry">
            <mxPoint x="250" y="450" as="sourcePoint" />
          </mxGeometry>
        </mxCell>
        <mxCell id="z8570nAPyHbNO16Ycq4u-43" style="edgeStyle=orthogonalEdgeStyle;rounded=0;orthogonalLoop=1;jettySize=auto;html=1;entryX=0.5;entryY=0;entryDx=0;entryDy=0;" parent="1" source="z8570nAPyHbNO16Ycq4u-40" target="z8570nAPyHbNO16Ycq4u-42" edge="1">
          <mxGeometry relative="1" as="geometry" />
        </mxCell>
        <mxCell id="z8570nAPyHbNO16Ycq4u-40" value="Subtract money from sender&#39;s account" style="rounded=0;whiteSpace=wrap;html=1;" parent="1" vertex="1">
          <mxGeometry x="100" y="425" width="110" height="50" as="geometry" />
        </mxCell>
        <mxCell id="z8570nAPyHbNO16Ycq4u-45" style="edgeStyle=orthogonalEdgeStyle;rounded=0;orthogonalLoop=1;jettySize=auto;html=1;entryX=0.5;entryY=0;entryDx=0;entryDy=0;" parent="1" source="z8570nAPyHbNO16Ycq4u-42" target="z8570nAPyHbNO16Ycq4u-44" edge="1">
          <mxGeometry relative="1" as="geometry">
            <Array as="points">
              <mxPoint x="425" y="580" />
            </Array>
          </mxGeometry>
        </mxCell>
        <mxCell id="z8570nAPyHbNO16Ycq4u-42" value="Add money to receiver&#39;s account considerating currency ratio&amp;nbsp;" style="rounded=0;whiteSpace=wrap;html=1;" parent="1" vertex="1">
          <mxGeometry x="100" y="510" width="110" height="90" as="geometry" />
        </mxCell>
        <mxCell id="z8570nAPyHbNO16Ycq4u-44" value="Stop" style="rounded=1;whiteSpace=wrap;html=1;" parent="1" vertex="1">
          <mxGeometry x="370" y="630" width="110" height="40" as="geometry" />
        </mxCell>
        <mxCell id="gryU-XBA_1HrgzcaGIGP-3" value="Load relevant data about currency tarriffs,&lt;br&gt;get currency ratio" style="shape=process;whiteSpace=wrap;html=1;backgroundOutline=1;" parent="1" vertex="1">
          <mxGeometry x="250" y="420" width="120" height="60" as="geometry" />
        </mxCell>
      </root>
    </mxGraphModel>
  </diagram>
</mxfile>
